<svg width="32" height="32" viewBox="0 0 32 32" fill="none" xmlns="http://www.w3.org/2000/svg">
<path d="M26 4H22V2H20V4H12V2H10V4H6C5.46973 4.00053 4.96133 4.21141 4.58637 4.58637C4.21141 4.96133 4.00053 5.46973 4 6V26C4.00053 26.5303 4.21141 27.0387 4.58637 27.4136C4.96133 27.7886 5.46973 27.9995 6 28H26C26.5303 27.9995 27.0387 27.7886 27.4136 27.4136C27.7886 27.0387 27.9995 26.5303 28 26V6C27.9995 5.46973 27.7886 4.96133 27.4136 4.58637C27.0387 4.21141 26.5303 4.00053 26 4ZM6 6H10V8H12V6H20V8H22V6H26V10H6V6ZM6 12H11V18H6V12ZM19 26H13V20H19V26ZM19 18H13V12H19V18ZM21 26V20H26L26.001 26H21Z" fill="#23B0B0"/>
<rect x="6" y="20" width="5" height="6" fill="#FFDE6C"/>
<rect x="21" y="12" width="5" height="6" fill="#FFDE6C"/>
</svg>
