<svg width="20" height="20" viewBox="0 0 20 20" fill="none" xmlns="http://www.w3.org/2000/svg">
<path d="M9.99984 1.66663C5.3915 1.66663 1.6665 5.39163 1.6665 9.99996C1.6665 14.6083 5.3915 18.3333 9.99984 18.3333C14.6082 18.3333 18.3332 14.6083 18.3332 9.99996C18.3332 5.39163 14.6082 1.66663 9.99984 1.66663ZM9.99984 16.6666C6.32484 16.6666 3.33317 13.675 3.33317 9.99996C3.33317 6.32496 6.32484 3.33329 9.99984 3.33329C13.6748 3.33329 16.6665 6.32496 16.6665 9.99996C16.6665 13.675 13.6748 16.6666 9.99984 16.6666ZM12.9915 5.83329L9.99984 8.82496L7.00817 5.83329L5.83317 7.00829L8.82484 9.99996L5.83317 12.9916L7.00817 14.1666L9.99984 11.175L12.9915 14.1666L14.1665 12.9916L11.1748 9.99996L14.1665 7.00829L12.9915 5.83329Z" fill="#636363"/>
</svg>
