<svg width="14" height="14" viewBox="0 0 14 14" fill="none" xmlns="http://www.w3.org/2000/svg">
<path d="M12.0909 7.4709C12.0916 7.11844 11.9934 6.77284 11.8075 6.47341C11.6215 6.17398 11.3553 5.93272 11.0391 5.77707C10.7229 5.62142 10.3693 5.55761 10.0186 5.59292C9.66791 5.62822 9.33416 5.76121 9.05529 5.97677C8.77642 6.19232 8.56363 6.4818 8.4411 6.81228C8.31858 7.14277 8.29124 7.501 8.36219 7.84625C8.43314 8.1915 8.59953 8.50992 8.84245 8.7653C9.08538 9.02068 9.39508 9.20279 9.73635 9.2909V9.82545C9.73635 10.4516 9.48761 11.0521 9.04486 11.4949C8.6021 11.9376 8.0016 12.1864 7.37544 12.1864C6.74929 12.1864 6.14879 11.9376 5.70603 11.4949C5.26327 11.0521 5.01453 10.4516 5.01453 9.82545C5.03821 9.26334 5.17561 8.71187 5.41842 8.20437C5.66124 7.69686 6.00443 7.24385 6.42726 6.87272H6.36363C6.81365 6.57914 7.18475 6.17961 7.44437 5.70918C7.704 5.23874 7.84421 4.71179 7.85272 4.17454V2.27818C7.85272 1.9035 7.70388 1.54416 7.43894 1.27923C7.174 1.01429 6.81467 0.865448 6.43999 0.865448H5.72726C5.60237 0.865448 5.48259 0.915061 5.39428 1.00337C5.30597 1.09169 5.25635 1.21146 5.25635 1.33636C5.25635 1.46125 5.30597 1.58103 5.39428 1.66934C5.48259 1.75765 5.60237 1.80727 5.72726 1.80727H6.42726C6.55215 1.80727 6.67193 1.85688 6.76024 1.94519C6.84856 2.0335 6.89817 2.15328 6.89817 2.27818V4.17454C6.89818 4.7968 6.65186 5.39377 6.21305 5.83497C5.77423 6.27617 5.17861 6.52572 4.55635 6.52909V6.87272V6.52909C4.24715 6.53076 3.94064 6.47152 3.65433 6.35474C3.36802 6.23795 3.10752 6.06592 2.8877 5.84846C2.66788 5.63101 2.49304 5.37238 2.37317 5.08735C2.2533 4.80232 2.19075 4.49647 2.18908 4.18727V2.27818C2.18908 2.15328 2.23869 2.0335 2.32701 1.94519C2.41532 1.85688 2.5351 1.80727 2.65999 1.80727H3.32181C3.4467 1.80727 3.56648 1.75765 3.65479 1.66934C3.7431 1.58103 3.79272 1.46125 3.79272 1.33636C3.79272 1.21146 3.7431 1.09169 3.65479 1.00337C3.56648 0.915061 3.4467 0.865448 3.32181 0.865448H2.65999C2.28974 0.87212 1.93691 1.0239 1.67745 1.28812C1.418 1.55234 1.27266 1.90787 1.27272 2.27818V4.17454C1.27134 4.70382 1.39793 5.22558 1.64169 5.69539C1.88546 6.16519 2.23918 6.56911 2.67272 6.87272C3.09322 7.24497 3.43404 7.69848 3.67464 8.20593C3.91524 8.71338 4.05065 9.26428 4.07272 9.82545C4.07272 10.2592 4.15814 10.6886 4.32412 11.0893C4.4901 11.4901 4.73338 11.8541 5.04006 12.1608C5.34675 12.4675 5.71084 12.7108 6.11154 12.8768C6.51225 13.0427 6.94172 13.1282 7.37544 13.1282C7.80916 13.1282 8.23864 13.0427 8.63934 12.8768C9.04005 12.7108 9.40414 12.4675 9.71082 12.1608C10.0175 11.8541 10.2608 11.4901 10.4268 11.0893C10.5927 10.6886 10.6782 10.2592 10.6782 9.82545V9.2909C11.0819 9.18667 11.4396 8.95144 11.6952 8.62208C11.9509 8.29272 12.0901 7.88784 12.0909 7.4709ZM10.1818 8.41272C9.99553 8.41272 9.81344 8.35748 9.65856 8.254C9.50368 8.15051 9.38296 8.00342 9.31168 7.83132C9.2404 7.65923 9.22175 7.46986 9.25809 7.28716C9.29443 7.10447 9.38412 6.93665 9.51584 6.80494C9.64756 6.67322 9.81537 6.58352 9.99807 6.54718C10.1808 6.51084 10.3701 6.52949 10.5422 6.60078C10.7143 6.67206 10.8614 6.79278 10.9649 6.94766C11.0684 7.10254 11.1236 7.28463 11.1236 7.4709C11.1236 7.59458 11.0993 7.71705 11.0519 7.83132C11.0046 7.94559 10.9352 8.04941 10.8478 8.13687C10.7603 8.22433 10.6565 8.2937 10.5422 8.34103C10.428 8.38836 10.3055 8.41272 10.1818 8.41272Z" fill="#979696"/>
</svg>
