<svg width="20" height="20" viewBox="0 0 20 20" fill="none" xmlns="http://www.w3.org/2000/svg">
<path d="M13.5775 1.91086C13.7338 1.75463 13.9457 1.66687 14.1667 1.66687C14.3876 1.66687 14.5996 1.75463 14.7558 1.91086L18.0892 5.24419C18.2454 5.40047 18.3332 5.61239 18.3332 5.83336C18.3332 6.05433 18.2454 6.26625 18.0892 6.42252L7.25583 17.2559C7.09959 17.4122 6.88766 17.5 6.66667 17.5H3.33333C3.11232 17.5 2.90036 17.4122 2.74408 17.2559C2.5878 17.0997 2.5 16.8877 2.5 16.6667V13.3334C2.50005 13.1124 2.58788 12.9004 2.74417 12.7442L11.0775 4.41086L13.5775 1.91086ZM11.6667 6.17836L4.16667 13.6784V15.8334H6.32167L13.8217 8.33336L11.6667 6.17836ZM15 7.15503L16.3217 5.83336L14.1667 3.67836L12.845 5.00003L15 7.15503Z" fill="#636363"/>
</svg>
