<svg width="20" height="20" viewBox="0 0 20 20" fill="none" xmlns="http://www.w3.org/2000/svg">
<path d="M6.66699 12.5H9.16699V15H10.8337V12.5H13.3337V10.8334H10.8337V8.33337H9.16699V10.8334H6.66699V12.5Z" fill="#636363"/>
<path d="M15.8333 3.33329H14.1667V1.66663H12.5V3.33329H7.5V1.66663H5.83333V3.33329H4.16667C3.2475 3.33329 2.5 4.08079 2.5 4.99996V16.6666C2.5 17.5858 3.2475 18.3333 4.16667 18.3333H15.8333C16.7525 18.3333 17.5 17.5858 17.5 16.6666V4.99996C17.5 4.08079 16.7525 3.33329 15.8333 3.33329ZM15.835 16.6666H4.16667V6.66663H15.8333L15.835 16.6666Z" fill="#636363"/>
</svg>
