<svg width="48" height="48" viewBox="0 0 48 48" fill="none" xmlns="http://www.w3.org/2000/svg">
<path d="M44.3668 23.6719L26.2543 5.56875L25.0402 4.35468C24.7636 4.07989 24.3895 3.92566 23.9996 3.92566C23.6097 3.92566 23.2356 4.07989 22.959 4.35468L3.63242 23.6719C3.34897 23.9542 3.12496 24.2905 2.9736 24.6608C2.82225 25.0312 2.74661 25.4281 2.75117 25.8281C2.76992 27.4781 4.14336 28.7953 5.79336 28.7953H7.78555V44.0625H40.2137V28.7953H42.248C43.0496 28.7953 43.8043 28.4812 44.3715 27.9141C44.6508 27.6357 44.872 27.3047 45.0225 26.9402C45.173 26.5757 45.2496 26.1849 45.248 25.7906C45.248 24.9937 44.934 24.2391 44.3668 23.6719V23.6719ZM26.6246 40.6875H21.3746V31.125H26.6246V40.6875ZM36.8387 25.4203V40.6875H29.6246V30C29.6246 28.9641 28.7855 28.125 27.7496 28.125H20.2496C19.2137 28.125 18.3746 28.9641 18.3746 30V40.6875H11.1605V25.4203H6.66055L24.0043 8.09062L25.0871 9.17343L41.3434 25.4203H36.8387Z" fill="black"/>
</svg>
