<svg width="48" height="48" viewBox="0 0 48 48" fill="none" xmlns="http://www.w3.org/2000/svg">
<path d="M41.25 5.25H6.75C5.92031 5.25 5.25 5.92031 5.25 6.75V41.25C5.25 42.0797 5.92031 42.75 6.75 42.75H41.25C42.0797 42.75 42.75 42.0797 42.75 41.25V6.75C42.75 5.92031 42.0797 5.25 41.25 5.25ZM39.375 39.375H8.625V8.625H39.375V39.375ZM23.0625 18.75H31.6875C31.8938 18.75 32.0625 18.5813 32.0625 18.375V16.125C32.0625 15.9187 31.8938 15.75 31.6875 15.75H23.0625C22.8562 15.75 22.6875 15.9187 22.6875 16.125V18.375C22.6875 18.5813 22.8562 18.75 23.0625 18.75ZM23.0625 25.5H31.6875C31.8938 25.5 32.0625 25.3313 32.0625 25.125V22.875C32.0625 22.6687 31.8938 22.5 31.6875 22.5H23.0625C22.8562 22.5 22.6875 22.6687 22.6875 22.875V25.125C22.6875 25.3313 22.8562 25.5 23.0625 25.5ZM23.0625 32.25H31.6875C31.8938 32.25 32.0625 32.0813 32.0625 31.875V29.625C32.0625 29.4187 31.8938 29.25 31.6875 29.25H23.0625C22.8562 29.25 22.6875 29.4187 22.6875 29.625V31.875C22.6875 32.0813 22.8562 32.25 23.0625 32.25ZM15.9375 17.25C15.9375 17.7473 16.135 18.2242 16.4867 18.5758C16.8383 18.9275 17.3152 19.125 17.8125 19.125C18.3098 19.125 18.7867 18.9275 19.1383 18.5758C19.49 18.2242 19.6875 17.7473 19.6875 17.25C19.6875 16.7527 19.49 16.2758 19.1383 15.9242C18.7867 15.5725 18.3098 15.375 17.8125 15.375C17.3152 15.375 16.8383 15.5725 16.4867 15.9242C16.135 16.2758 15.9375 16.7527 15.9375 17.25V17.25ZM15.9375 24C15.9375 24.4973 16.135 24.9742 16.4867 25.3258C16.8383 25.6775 17.3152 25.875 17.8125 25.875C18.3098 25.875 18.7867 25.6775 19.1383 25.3258C19.49 24.9742 19.6875 24.4973 19.6875 24C19.6875 23.5027 19.49 23.0258 19.1383 22.6742C18.7867 22.3225 18.3098 22.125 17.8125 22.125C17.3152 22.125 16.8383 22.3225 16.4867 22.6742C16.135 23.0258 15.9375 23.5027 15.9375 24ZM15.9375 30.75C15.9375 31.2473 16.135 31.7242 16.4867 32.0758C16.8383 32.4275 17.3152 32.625 17.8125 32.625C18.3098 32.625 18.7867 32.4275 19.1383 32.0758C19.49 31.7242 19.6875 31.2473 19.6875 30.75C19.6875 30.2527 19.49 29.7758 19.1383 29.4242C18.7867 29.0725 18.3098 28.875 17.8125 28.875C17.3152 28.875 16.8383 29.0725 16.4867 29.4242C16.135 29.7758 15.9375 30.2527 15.9375 30.75V30.75Z" fill="black"/>
</svg>
