<svg width="22" height="22" viewBox="0 0 22 22" fill="none" xmlns="http://www.w3.org/2000/svg">
<path d="M9.16683 3.66663C8.19437 3.66663 7.26174 4.05293 6.5741 4.74057C5.88647 5.4282 5.50016 6.36083 5.50016 7.33329C5.50016 8.30575 5.88647 9.23838 6.5741 9.92602C7.26174 10.6137 8.19437 11 9.16683 11C10.1393 11 11.0719 10.6137 11.7596 9.92602C12.4472 9.23838 12.8335 8.30575 12.8335 7.33329C12.8335 6.36083 12.4472 5.4282 11.7596 4.74057C11.0719 4.05293 10.1393 3.66663 9.16683 3.66663ZM9.16683 5.49996C9.65306 5.49996 10.1194 5.69311 10.4632 6.03693C10.807 6.38075 11.0002 6.84706 11.0002 7.33329C11.0002 7.81952 10.807 8.28584 10.4632 8.62965C10.1194 8.97347 9.65306 9.16663 9.16683 9.16663C8.6806 9.16663 8.21428 8.97347 7.87047 8.62965C7.52665 8.28584 7.3335 7.81952 7.3335 7.33329C7.3335 6.84706 7.52665 6.38075 7.87047 6.03693C8.21428 5.69311 8.6806 5.49996 9.16683 5.49996ZM9.16683 11.9166C6.71933 11.9166 1.8335 13.1358 1.8335 15.5833V18.3333H10.5418C10.3111 17.7778 10.1659 17.1906 10.111 16.5916H3.57516V15.5833C3.57516 14.9966 6.44433 13.6583 9.16683 13.6583C9.62516 13.6583 10.0835 13.7041 10.5418 13.7775C10.7771 13.1986 11.1019 12.6604 11.5043 12.1825C10.6427 12.0083 9.81766 11.9166 9.16683 11.9166ZM16.0418 11.9166C13.7502 11.9166 11.9168 13.75 11.9168 16.0416C11.9168 18.3333 13.7502 20.1666 16.0418 20.1666C18.3335 20.1666 20.1668 18.3333 20.1668 16.0416C20.1668 13.75 18.3335 11.9166 16.0418 11.9166ZM16.0418 13.2916C17.5635 13.2916 18.7918 14.52 18.7918 16.0416C18.7918 16.555 18.6543 17.0316 18.4068 17.4166L14.6668 13.6766C15.0518 13.4291 15.5285 13.2916 16.0418 13.2916ZM13.6768 14.6666L17.4168 18.4066C17.0318 18.6541 16.5552 18.7916 16.0418 18.7916C14.5202 18.7916 13.2918 17.5633 13.2918 16.0416C13.2918 15.5283 13.4293 15.0516 13.6768 14.6666Z" fill="#636363"/>
</svg>
