<svg width="25" height="25" viewBox="0 0 25 25" fill="none" xmlns="http://www.w3.org/2000/svg">
<path fill-rule="evenodd" clip-rule="evenodd" d="M18.6826 6.43911C18.6826 2.60005 16.0248 0.0969238 13.2264 0.0969238C10.4232 0.0969238 7.8248 2.57505 7.8248 6.43911H7.82324C7.83418 9.02974 10.2639 13.9375 13.2545 13.9375C16.2436 13.9375 18.667 9.02974 18.6826 6.43911Z" fill="#23B0B0"/>
<path fill-rule="evenodd" clip-rule="evenodd" d="M21.0922 17.2516C20.0721 17.2512 19.0935 17.6558 18.3716 18.3766C17.6497 19.0973 17.2434 20.0752 17.2422 21.0953C17.2422 22.116 17.6476 23.0949 18.3694 23.8166C19.0911 24.5383 20.07 24.9438 21.0906 24.9438C22.1113 24.9438 23.0902 24.5383 23.8119 23.8166C24.5336 23.0949 24.9391 22.116 24.9391 21.0953C24.9382 20.0756 24.5326 19.098 23.8112 18.3772C23.0899 17.6565 22.1119 17.2516 21.0922 17.2516ZM21.9297 21.9094V23.4375H20.2844V21.9094H18.6781V20.2953H20.2844V18.6922H21.9297V20.2953H23.475V21.9094H21.9297Z" fill="#FFB110"/>
<path fill-rule="evenodd" clip-rule="evenodd" d="M14.6843 20.3156C14.6843 18.3766 15.5358 16.6375 16.8812 15.4578C17.6015 14.8234 17.5593 14.8797 16.9312 15.1844C15.1218 16.0625 12.6718 16.3188 12.6718 16.3188C12.6718 16.3188 8.12803 15.8703 6.78896 14.0703C0.374902 14.0703 0.181152 23.3891 0.181152 23.3891H15.4546C14.9482 22.4438 14.6836 21.388 14.6843 20.3156Z" fill="#23B0B0"/>
</svg>
