<svg width="48" height="48" viewBox="0 0 48 48" fill="none" xmlns="http://www.w3.org/2000/svg">
<path d="M35.25 31.125C33.9141 31.125 32.6812 31.5938 31.7156 32.3766L22.0031 25.35C22.1658 24.4573 22.1658 23.5427 22.0031 22.65L31.7156 15.6234C32.6812 16.4062 33.9141 16.875 35.25 16.875C38.3531 16.875 40.875 14.3531 40.875 11.25C40.875 8.14688 38.3531 5.625 35.25 5.625C32.1469 5.625 29.625 8.14688 29.625 11.25C29.625 11.7938 29.7 12.3141 29.8453 12.8109L20.6203 19.4906C19.2516 17.6766 17.0766 16.5 14.625 16.5C10.4812 16.5 7.125 19.8562 7.125 24C7.125 28.1438 10.4812 31.5 14.625 31.5C17.0766 31.5 19.2516 30.3234 20.6203 28.5094L29.8453 35.1891C29.7 35.6859 29.625 36.2109 29.625 36.75C29.625 39.8531 32.1469 42.375 35.25 42.375C38.3531 42.375 40.875 39.8531 40.875 36.75C40.875 33.6469 38.3531 31.125 35.25 31.125ZM35.25 8.8125C36.5953 8.8125 37.6875 9.90469 37.6875 11.25C37.6875 12.5953 36.5953 13.6875 35.25 13.6875C33.9047 13.6875 32.8125 12.5953 32.8125 11.25C32.8125 9.90469 33.9047 8.8125 35.25 8.8125ZM14.625 28.125C12.3516 28.125 10.5 26.2734 10.5 24C10.5 21.7266 12.3516 19.875 14.625 19.875C16.8984 19.875 18.75 21.7266 18.75 24C18.75 26.2734 16.8984 28.125 14.625 28.125ZM35.25 39.1875C33.9047 39.1875 32.8125 38.0953 32.8125 36.75C32.8125 35.4047 33.9047 34.3125 35.25 34.3125C36.5953 34.3125 37.6875 35.4047 37.6875 36.75C37.6875 38.0953 36.5953 39.1875 35.25 39.1875Z" fill="black"/>
</svg>
